<svg xmlns="http://www.w3.org/2000/svg" width="256" height="256" fill="#41B619">
<style>
    rect {
      fill: #FBE7B5;
    }
    @media (prefers-color-scheme: dark) {
      rect {
        fill: #F2F8FD;
      }
    }
  </style>
  <rect width="100%" height="100%" rx="30"/>
<path d="M203.8 131.72a1.331 1.331 0 0 0-.05-.19.613.613 0 0 0-.05-.12 89.116 89.116 0 0 0-14.067-26.53.555.555 0 0 1-.07-.09v-.01c-.33-.42-.65-.84-.98-1.25l-.12-.16a42.6 42.6 0 0 1-3.852-5.8 8.022 8.022 0 0 0 5.42-7.57V70a1.338 1.338 0 0 0-.01-.2 8 8 0 0 0-7.994-7.8h-4.112c1.171-23.07 9.515-51.14 9.6-51.43a1.947 1.947 0 0 0-.31-1.76 1.981 1.981 0 0 0-1.6-.81H70.391a2 2 0 0 0-1.911 2.57c.09.29 8.434 28.35 9.6 51.43H67.969a2.006 2.006 0 0 0-2 2v11.52A22.006 22.006 0 0 0 51.961 96v26a2.006 2.006 0 0 0 2 2h1.131a82.333 82.333 0 0 0-2.791 7.39.59.59 0 0 0-.06.14 1.331 1.331 0 0 0-.05.19c-10.4 32.3-1.441 71.04 26.7 115.35a2.011 2.011 0 0 0 1.691.93h94.828a2.011 2.011 0 0 0 1.691-.93c28.177-44.37 37.099-83.02 26.699-115.35Zm-75.81 86.36a121.507 121.507 0 0 0-10.415-31.67 26.58 26.58 0 0 0 20.85-.08 121.626 121.626 0 0 0-10.435 31.75ZM55.963 120v-4h16.008v4H55.963Zm132.1-1.53a165.581 165.581 0 0 1-8.764 3.79 1.921 1.921 0 0 1-.74.15 2.021 2.021 0 0 1-1.861-1.26 2 2 0 0 1 1.121-2.6 157.68 157.68 0 0 0 8.544-3.71 2 2 0 0 1 1.7 3.63Zm-17.739 7.06c-3.042 1-6.133 1.91-9.175 2.69a1.681 1.681 0 0 1-.5.07 2 2 0 0 1-.5-3.94c2.962-.76 5.963-1.64 8.925-2.62a2 2 0 0 1 1.251 3.8Zm-56.428 6.19c-.08 0-.15-.01-.23-.01-3.141-.36-6.333-.83-9.475-1.41a2 2 0 1 1 .73-3.93c3.052.56 6.143 1.02 9.185 1.36a2 2 0 0 1-.21 3.99Zm7.394-1.38a2.021 2.021 0 0 1 2.081-1.92c3.071.11 6.193.11 9.275-.01a2 2 0 1 1 .15 4c-1.621.06-3.262.09-4.883.09-1.561 0-3.141-.03-4.692-.09a2.007 2.007 0 0 1-1.935-2.07Zm18.849-.41a1.987 1.987 0 0 1 1.761-2.21c3.051-.34 6.143-.8 9.185-1.36a2 2 0 1 1 .73 3.93 134.16 134.16 0 0 1-9.465 1.4 1.789 1.789 0 0 1-.23.02 2 2 0 0 1-1.984-1.78Zm-42.851-3.14a2 2 0 0 1-1.931 1.5 1.8 1.8 0 0 1-.51-.07 144.57 144.57 0 0 1-9.175-2.69 2 2 0 1 1 1.261-3.8c2.961.97 5.963 1.86 8.925 2.62a2 2 0 0 1 1.426 2.44Zm87.564-21.54c-36.138 16.6-72.757 17.32-108.875 2.12V98h104.329a48.208 48.208 0 0 0 4.542 7.25ZM186.029 90a4.006 4.006 0 0 1-4 4H76.084a18.072 18.072 0 0 1 11.9-14.97V86a2 2 0 0 0 4 0v-7.89a18.867 18.867 0 0 1 2-.11h10.005v4a2 2 0 0 0 4 0v-4H120v8a2 2 0 0 0 4 0v-8h12v4a2 2 0 0 0 4 0v-4h12.006v8a2 2 0 0 0 4 0v-8h12.014v4a2 2 0 0 0 4 0v-4h10.005a7.913 7.913 0 0 0 4-1.08ZM73.042 12h109.915c-2.171 7.82-8.464 31.95-9.114 51.8a1.273 1.273 0 0 0-.01.2 96.636 96.636 0 0 0 .2 10H81.966a96.636 96.636 0 0 0 .2-10 1.273 1.273 0 0 0-.01-.2c-.65-19.85-6.943-43.98-9.114-51.8ZM55.963 96a18.025 18.025 0 0 1 18.009-18h7.384a21.31 21.31 0 0 0-4.042 3.66c-.02.01-.02.01-.02.02a2.1 2.1 0 0 0-.2.24c-.02.02-.04.03-.04.05a21.833 21.833 0 0 0-5.073 13.83 1.338 1.338 0 0 0-.01.2v16H55.963Zm-.5 38.73a109.894 109.894 0 0 1 55.308 47.44 2.24 2.24 0 0 0 .39.69c.01.01.02.01.02.02 7.494 13.28 13.147 29.88 14.807 50.5q-.405 5.145-.47 10.62H81.686C55.2 201.97 46.419 165.29 55.463 134.73ZM174.313 244H129.52c.05-3.59.2-7.07.48-10.44a.419.419 0 0 1 .01-.16c1.641-20.64 7.3-37.25 14.777-50.54a.177.177 0 0 0 .05-.04 1.9 1.9 0 0 0 .48-.88 109.871 109.871 0 0 1 55.2-47.2c9.023 30.62.269 67.23-26.204 109.26Z"/>
</svg>
