<svg width="18" height="20" viewBox="0 0 18 20" fill="none" xmlns="http://www.w3.org/2000/svg">
<path d="M14 9H12V11H14V9Z" fill="#9B9FAA"/>
<path d="M10 9H7.99998V11H10V9Z" fill="#9B9FAA"/>
<path d="M6.00004 9H4.00002V11H6.00004V9Z" fill="#9B9FAA"/>
<path d="M16 2.00001H15V0H13V2.00001H4.99998V0H2.99997V2.00001H1.99998C0.889984 2.00001 0.0100008 2.90001 0.0100008 4.00003L-3.05176e-05 18C-3.05176e-05 19.1 0.889984 20 1.99998 20H16C17.1 20 18 19.1 18 18V3.99998C18 2.90001 17.1 2.00001 16 2.00001ZM16 18H1.99998V6.99998H16V18Z" fill="#9B9FAA"/>
</svg>
